HIERARCHY
ROOT Hips
{
	OFFSET -0.001795 -0.223333 0.028219
	CHANNELS 6 Xposition Yposition Zposition Zrotation Yrotation Xrotation 
	JOINT LeftUpLeg
	{
		OFFSET 0.069520 -0.091406 -0.006815
		CHANNELS 3 Zrotation Yrotation Xrotation
		JOINT LeftLeg
		{
			OFFSET 0.034277 -0.375199 -0.004496
			CHANNELS 3 Zrotation Yrotation Xrotation
			JOINT LeftFoot
			{
				OFFSET -0.013596 -0.397961 -0.043693
				CHANNELS 3 Zrotation Yrotation Xrotation
				JOINT LeftToe
				{
					OFFSET 0.026358 -0.055791 0.119288
					CHANNELS 3 Zrotation Yrotation Xrotation
					End Site
					{
						OFFSET 0.000000 0.000000 0.000000
					}
				}
			}
		}
	}
	JOINT RightUpLeg
	{
		OFFSET -0.067670 -0.090522 -0.004320
		CHANNELS 3 Zrotation Yrotation Xrotation
		JOINT RightLeg
		{
			OFFSET -0.038290 -0.382569 -0.008850
			CHANNELS 3 Zrotation Yrotation Xrotation
			JOINT RightFoot
			{
				OFFSET 0.015774 -0.398415 -0.042312
				CHANNELS 3 Zrotation Yrotation Xrotation
				JOINT RightToe
				{
					OFFSET -0.025372 -0.048144 0.123348
					CHANNELS 3 Zrotation Yrotation Xrotation
					End Site
					{
						OFFSET 0.000000 0.000000 0.000000
					}
				}
			}
		}
	}
	JOINT Spine
	{
		OFFSET -0.002533 0.108963 -0.026696
		CHANNELS 3 Zrotation Yrotation Xrotation
		JOINT Spine1
		{
			OFFSET 0.005487 0.135180 0.001092
			CHANNELS 3 Zrotation Yrotation Xrotation
			JOINT Spine2
			{
				OFFSET 0.001457 0.052922 0.025425
				CHANNELS 3 Zrotation Yrotation Xrotation
				JOINT Neck
				{
					OFFSET -0.002778 0.213870 -0.042857
					CHANNELS 3 Zrotation Yrotation Xrotation
					JOINT Head
					{
						OFFSET 0.005152 0.064970 0.051349
						CHANNELS 3 Zrotation Yrotation Xrotation
						End Site
						{
							OFFSET 0.000000 0.000000 0.000000
						}
					}
				}
				JOINT LeftShoulder
				{
					OFFSET 0.078845 0.121749 -0.034090
					CHANNELS 3 Zrotation Yrotation Xrotation
					JOINT LeftArm
					{
						OFFSET 0.090977 0.030469 -0.008868
						CHANNELS 3 Zrotation Yrotation Xrotation
						JOINT LeftForeArm
						{
							OFFSET 0.259612 -0.012772 -0.027456
							CHANNELS 3 Zrotation Yrotation Xrotation
							JOINT LeftHand
							{
								OFFSET 0.249234 0.008986 -0.001171
								CHANNELS 3 Zrotation Yrotation Xrotation
								End Site
								{
									OFFSET 0.000000 0.000000 0.000000
								}
							}
						}
					}
				}
				JOINT RightShoulder
				{
					OFFSET -0.081759 0.118833 -0.038615
					CHANNELS 3 Zrotation Yrotation Xrotation
					JOINT RightArm
					{
						OFFSET -0.096012 0.032551 -0.009143
						CHANNELS 3 Zrotation Yrotation Xrotation
						JOINT RightForeArm
						{
							OFFSET -0.253742 -0.013329 -0.021401
							CHANNELS 3 Zrotation Yrotation Xrotation
							JOINT RightHand
							{
								OFFSET -0.255298 0.007772 -0.005559
								CHANNELS 3 Zrotation Yrotation Xrotation
								End Site
								{
									OFFSET 0.000000 0.000000 0.000000
								}
							}
						}
					}
				}
			}
		}
	}
}
MOTION
Frames: 10
Frame Time: 0.050000
-0.007287 0.964487 -0.024607 -0.647709 2.197116 -1.813327 4.217330 0.509301 11.224800 -2.195485 0.394248 -13.261476 -1.553000 4.474213 18.004911 0.000000 0.000000 0.000000 -0.701572 -1.045746 10.701983 -1.289644 -0.500997 -12.216870 -2.452858 -10.865058 19.665315 0.000000 0.000000 0.000000 -2.454197 -0.086346 4.492733 5.219469 -0.543567 -25.485594 -1.532848 -0.172806 24.693242 2.202527 -0.095302 -18.812983 0.000000 0.000000 0.000000 1.368051 5.903509 -1.915892 -5.452218 -28.316732 -1.437288 74.944442 -30.064783 -22.522905 0.000000 0.000000 0.000000 -9.872630 -0.627688 0.067266 11.873445 24.718154 -0.570806 -85.419585 22.377600 -17.273435 0.000000 0.000000 0.000000 
-0.007098 0.964465 -0.024925 -0.697901 2.348155 -1.643754 4.154535 0.486691 10.747435 -2.220087 0.387565 -12.869505 -1.566363 4.607579 18.413161 0.000000 0.000000 0.000000 -0.470623 -1.067518 10.635813 -1.638439 -0.490909 -12.037197 -2.434001 -10.771348 19.450241 0.000000 0.000000 0.000000 -2.348810 -0.093585 4.675274 5.363173 -0.529057 -26.166946 -1.782444 -0.139954 25.155921 2.024007 0.122299 -19.767636 0.000000 0.000000 0.000000 1.489607 6.336241 -2.049650 -5.134438 -27.945444 -1.476043 69.127314 -27.067641 -18.276694 0.000000 0.000000 0.000000 -10.536026 -1.120106 -0.067336 11.254662 24.881124 -0.628535 -79.012845 19.207485 -12.837955 0.000000 0.000000 0.000000 
-0.006865 0.964608 -0.025176 -0.831783 2.475818 -1.537777 4.236207 0.467663 10.655430 -2.085008 0.387483 -13.025415 -1.684966 4.447896 18.391693 0.000000 0.000000 0.000000 -0.296238 -1.092102 10.656765 -1.723374 -0.484454 -11.913040 -2.452833 -10.665916 18.784039 0.000000 0.000000 0.000000 -2.189220 -0.105006 4.891363 5.504863 -0.526909 -26.652368 -1.873981 -0.173149 25.359718 1.797654 0.320674 -20.312503 0.000000 0.000000 0.000000 1.341804 6.550503 -2.141003 -3.996995 -27.396338 -1.582647 62.849884 -24.300182 -14.588278 0.000000 0.000000 0.000000 -11.044470 -1.619943 -0.192161 10.204487 25.128852 -0.725886 -72.217584 17.007165 -9.793482 0.000000 0.000000 0.000000 
-0.006574 0.964308 -0.025301 -0.971089 3.080455 -1.496408 4.483913 0.405966 10.296464 -2.429983 0.371227 -12.685004 -1.722477 4.566801 18.645591 0.000000 0.000000 0.000000 -0.137098 -1.146078 10.872823 -1.667495 -0.503132 -12.140877 -2.627189 -10.907176 19.073225 0.000000 0.000000 0.000000 -1.993566 -0.126620 5.343080 5.523132 -0.488821 -27.244619 -1.886126 -0.350286 25.604498 0.993527 0.921558 -21.069638 0.000000 0.000000 0.000000 1.096269 6.444615 -2.129700 -2.587342 -27.060978 -1.719139 55.977259 -20.585771 -10.817795 0.000000 0.000000 0.000000 -10.847469 -1.926745 -0.310646 8.754594 24.028527 -0.887731 -65.639541 13.863919 -6.698237 0.000000 0.000000 0.000000 
-0.006253 0.964246 -0.025376 -1.150213 3.400830 -1.301146 4.575830 0.377192 10.147404 -2.255778 0.366838 -12.748802 -1.728236 4.573511 18.549431 0.000000 0.000000 0.000000 0.136526 -1.155374 10.620742 -1.773693 -0.483973 -11.791971 -2.605974 -10.728929 18.521505 0.000000 0.000000 0.000000 -2.078325 -0.130449 5.660327 6.018410 -0.562699 -27.675418 -1.991827 -0.366875 25.825319 1.036304 0.935213 -21.291520 0.000000 0.000000 0.000000 1.087290 6.938816 -2.300180 -1.339715 -26.473019 -1.814665 48.675061 -17.232484 -7.718000 0.000000 0.000000 0.000000 -10.982935 -2.856407 -0.573652 8.101444 23.323179 -0.953783 -59.191450 11.449473 -4.518805 0.000000 0.000000 0.000000 
-0.005904 0.963828 -0.025456 -1.234718 3.892767 -1.161910 4.789716 0.327373 9.888323 -2.356392 0.355446 -12.541728 -2.047331 4.143537 18.429347 0.000000 0.000000 0.000000 0.273477 -1.211712 10.889515 -1.886405 -0.497868 -11.961289 -2.608168 -10.701186 18.777492 0.000000 0.000000 0.000000 -1.801688 -0.151408 5.876987 5.915894 -0.503144 -28.180418 -1.783709 -0.795980 26.062867 0.137776 1.497527 -21.585557 0.000000 0.000000 0.000000 0.977984 7.160853 -2.394905 -1.160801 -25.791621 -1.783642 41.580899 -13.854784 -5.138920 0.000000 0.000000 0.000000 -10.752000 -3.044575 -0.625525 7.518599 21.959514 -1.015554 -53.603756 8.739044 -2.768954 0.000000 0.000000 0.000000 
-0.005678 0.963654 -0.025658 -1.314225 4.144645 -0.819352 4.866239 0.289876 9.412504 -2.475965 0.349026 -12.362922 -1.933858 4.433030 18.703623 0.000000 0.000000 0.000000 0.407928 -1.158266 10.260632 -1.729581 -0.454470 -11.216362 -2.830658 -10.962773 18.375256 0.000000 0.000000 0.000000 -1.779346 -0.155713 6.015657 6.059612 -0.515702 -28.400597 -1.696237 -1.150771 26.119679 -0.446361 1.836167 -21.685991 0.000000 0.000000 0.000000 1.003790 7.565510 -2.538249 -0.710974 -24.420567 -1.714341 34.273376 -10.560759 -3.097639 0.000000 0.000000 0.000000 -10.865461 -3.742265 -0.777809 7.281166 21.062334 -1.037586 -47.307452 6.659604 -1.559245 0.000000 0.000000 0.000000 
-0.005476 0.963423 -0.026154 -1.387022 4.426309 -0.593657 5.068871 0.245923 9.073177 -2.664644 0.342044 -12.200172 -1.999423 4.144488 18.018766 0.000000 0.000000 0.000000 0.400725 -1.163294 10.261395 -1.510797 -0.463313 -11.275539 -2.774289 -10.805908 18.244949 0.000000 0.000000 0.000000 -1.316824 -0.180965 5.997996 5.707414 -0.432130 -28.511151 -1.773052 -1.382702 26.278197 -0.952289 2.136890 -21.534104 0.000000 0.000000 0.000000 1.089828 7.709565 -2.580473 -0.813626 -23.155158 -1.613500 27.896774 -7.826271 -1.780627 0.000000 0.000000 0.000000 -10.610172 -4.130035 -0.890849 7.545315 19.688296 -1.030737 -41.900663 5.740479 -1.014041 0.000000 0.000000 0.000000 
-0.005391 0.963462 -0.026927 -1.215919 4.543789 -0.576894 5.078580 0.243485 9.103901 -2.979961 0.338211 -12.025209 -1.965212 4.161359 17.881924 0.000000 0.000000 0.000000 0.136713 -1.098726 9.932969 -1.152266 -0.444634 -10.854220 -2.988489 -11.100524 17.926215 0.000000 0.000000 0.000000 -1.373640 -0.189213 6.341022 5.725456 -0.422441 -28.710216 -1.833212 -1.542791 26.582576 -1.000909 2.156381 -21.679182 0.000000 0.000000 0.000000 1.144602 7.858452 -2.630566 -1.012597 -21.939929 -1.515880 22.985700 -5.128640 -0.906225 0.000000 0.000000 0.000000 -10.790466 -4.735519 -1.036298 7.864621 18.781732 -1.028843 -36.218344 5.033263 -0.626282 0.000000 0.000000 0.000000 
-0.005354 0.963306 -0.027829 -1.224442 4.388093 -0.431523 5.099864 0.245115 9.141169 -3.264585 0.338803 -12.118622 -1.758723 4.295980 17.471336 0.000000 0.000000 0.000000 -0.172958 -1.040244 9.718243 -0.744693 -0.457124 -10.960081 -2.848304 -10.889371 17.941096 0.000000 0.000000 0.000000 -1.056201 -0.203413 6.234898 5.500506 -0.386867 -28.509806 -1.902407 -1.420384 26.628013 -1.165031 2.256729 -21.444855 0.000000 0.000000 0.000000 0.871989 7.795234 -2.645283 -1.129603 -20.901362 -1.439634 19.473076 -3.648431 -0.510469 0.000000 0.000000 0.000000 -10.653576 -4.857313 -1.080174 8.170067 17.997321 -1.023565 -30.334684 4.502398 -0.349622 0.000000 0.000000 0.000000 
